<mxfile host="drawio-plugin" modified="2022-02-23T08:11:31.410Z" agent="5.0 (Windows NT 6.2; Win64; x64) AppleWebKit/537.36 (KHTML, like Gecko) Chrome/89.0.4389.114 Safari/537.36" etag="7DzcdFHdKTq4XtmD1SSG" version="15.5.4" type="embed"><diagram id="AnLjpYb3ivXH3Onb80LC" name="Page-1"><mxGraphModel dx="745" dy="417" grid="1" gridSize="10" guides="1" tooltips="1" connect="1" arrows="1" fold="1" page="1" pageScale="1" pageWidth="827" pageHeight="1169" math="0" shadow="0"><root><mxCell id="0"/><mxCell id="1" parent="0"/><mxCell id="tnv3i2VillkjBU5h0HPm-1" value="Field" style="swimlane;fontStyle=1;align=center;verticalAlign=top;childLayout=stackLayout;horizontal=1;startSize=26;horizontalStack=0;resizeParent=1;resizeParentMax=0;resizeLast=0;collapsible=1;marginBottom=0;" parent="1" vertex="1"><mxGeometry x="219.5" y="20" width="300" height="184" as="geometry"/></mxCell><mxCell id="tnv3i2VillkjBU5h0HPm-2" value="- rowCount: int&#10;- columnCount: int&#10;- score: int&#10;+ position [ row] [ column ]" style="text;strokeColor=none;fillColor=none;align=left;verticalAlign=top;spacingLeft=4;spacingRight=4;overflow=hidden;rotatable=0;points=[[0,0.5],[1,0.5]];portConstraint=eastwest;" parent="tnv3i2VillkjBU5h0HPm-1" vertex="1"><mxGeometry y="26" width="300" height="64" as="geometry"/></mxCell><mxCell id="tnv3i2VillkjBU5h0HPm-3" value="" style="line;strokeWidth=1;fillColor=none;align=left;verticalAlign=middle;spacingTop=-1;spacingLeft=3;spacingRight=3;rotatable=0;labelPosition=right;points=[];portConstraint=eastwest;" parent="tnv3i2VillkjBU5h0HPm-1" vertex="1"><mxGeometry y="90" width="300" height="8" as="geometry"/></mxCell><mxCell id="tnv3i2VillkjBU5h0HPm-4" value="+ moveTile(row, column, toRow, toColumn) void&#10;- isSolved(): bolean&#10;- generate() void&#10;- getScore(): int&#10;- updateScore(): void&#10;" style="text;strokeColor=none;fillColor=none;align=left;verticalAlign=top;spacingLeft=4;spacingRight=4;overflow=hidden;rotatable=0;points=[[0,0.5],[1,0.5]];portConstraint=eastwest;" parent="tnv3i2VillkjBU5h0HPm-1" vertex="1"><mxGeometry y="98" width="300" height="86" as="geometry"/></mxCell><mxCell id="tnv3i2VillkjBU5h0HPm-14" value="&lt;font style=&quot;font-size: 8px&quot;&gt;rowCount * columnCount&lt;/font&gt;" style="text;html=1;align=center;verticalAlign=middle;resizable=0;points=[];autosize=1;strokeColor=none;fillColor=none;" parent="1" vertex="1"><mxGeometry x="370" y="250" width="100" height="20" as="geometry"/></mxCell><mxCell id="tnv3i2VillkjBU5h0HPm-15" value="pixel&lt;br&gt;empty pixe;" style="text;html=1;align=center;verticalAlign=middle;resizable=0;points=[];autosize=1;strokeColor=none;fillColor=none;fontSize=8;" parent="1" vertex="1"><mxGeometry x="710" y="30" width="60" height="30" as="geometry"/></mxCell><mxCell id="tnv3i2VillkjBU5h0HPm-28" value="PixelState &lt;&lt;enum&gt;&gt;" style="swimlane;fontStyle=0;childLayout=stackLayout;horizontal=1;startSize=26;fillColor=none;horizontalStack=0;resizeParent=1;resizeParentMax=0;resizeLast=0;collapsible=1;marginBottom=0;fontSize=11;" parent="1" vertex="1"><mxGeometry x="580" y="280" width="140" height="60" as="geometry"><mxRectangle x="570" y="770" width="100" height="26" as="alternateBounds"/></mxGeometry></mxCell><mxCell id="tnv3i2VillkjBU5h0HPm-29" value="&#10;MOVABLE, UNMOVABLE" style="text;strokeColor=none;fillColor=none;align=left;verticalAlign=top;spacingLeft=4;spacingRight=4;overflow=hidden;rotatable=0;points=[[0,0.5],[1,0.5]];portConstraint=eastwest;fontSize=8;" parent="tnv3i2VillkjBU5h0HPm-28" vertex="1"><mxGeometry y="26" width="140" height="34" as="geometry"/></mxCell><mxCell id="tnv3i2VillkjBU5h0HPm-33" value="FieldState &lt;&lt;enum&gt;&gt;" style="swimlane;fontStyle=0;childLayout=stackLayout;horizontal=1;startSize=26;fillColor=none;horizontalStack=0;resizeParent=1;resizeParentMax=0;resizeLast=0;collapsible=1;marginBottom=0;fontSize=11;" parent="1" vertex="1"><mxGeometry x="595" y="90" width="140" height="52" as="geometry"><mxRectangle x="570" y="770" width="100" height="26" as="alternateBounds"/></mxGeometry></mxCell><mxCell id="tnv3i2VillkjBU5h0HPm-34" value="PLAYING, SOLVED" style="text;strokeColor=none;fillColor=none;align=left;verticalAlign=top;spacingLeft=4;spacingRight=4;overflow=hidden;rotatable=0;points=[[0,0.5],[1,0.5]];portConstraint=eastwest;fontSize=8;" parent="tnv3i2VillkjBU5h0HPm-33" vertex="1"><mxGeometry y="26" width="140" height="26" as="geometry"/></mxCell><mxCell id="tnv3i2VillkjBU5h0HPm-35" value="1" style="endArrow=open;html=1;endSize=12;startArrow=diamondThin;startSize=14;startFill=1;edgeStyle=orthogonalEdgeStyle;align=left;verticalAlign=bottom;rounded=0;fontSize=11;exitX=1.003;exitY=0.23;exitDx=0;exitDy=0;exitPerimeter=0;entryX=0.007;entryY=0.176;entryDx=0;entryDy=0;entryPerimeter=0;" parent="1" edge="1" target="tnv3i2VillkjBU5h0HPm-29"><mxGeometry x="-1" y="3" relative="1" as="geometry"><mxPoint x="450.0084999999999" y="311.98" as="sourcePoint"/><mxPoint x="560" y="311" as="targetPoint"/></mxGeometry></mxCell><mxCell id="tnv3i2VillkjBU5h0HPm-36" value="1" style="endArrow=open;html=1;endSize=12;startArrow=diamondThin;startSize=14;startFill=1;edgeStyle=orthogonalEdgeStyle;align=left;verticalAlign=bottom;rounded=0;fontSize=11;entryX=0;entryY=0.5;entryDx=0;entryDy=0;" parent="1" target="tnv3i2VillkjBU5h0HPm-34" edge="1"><mxGeometry x="-1" y="3" relative="1" as="geometry"><mxPoint x="520" y="129" as="sourcePoint"/><mxPoint x="758" y="111" as="targetPoint"/></mxGeometry></mxCell><mxCell id="tnv3i2VillkjBU5h0HPm-38" value="" style="ellipse;html=1;shape=startState;fillColor=#000000;strokeColor=#ff0000;fontSize=11;" parent="1" vertex="1"><mxGeometry x="204" y="650" width="30" height="30" as="geometry"/></mxCell><mxCell id="tnv3i2VillkjBU5h0HPm-39" value="" style="edgeStyle=orthogonalEdgeStyle;html=1;verticalAlign=bottom;endArrow=open;endSize=8;strokeColor=#ff0000;rounded=0;fontSize=11;" parent="1" edge="1"><mxGeometry relative="1" as="geometry"><mxPoint x="220" y="740" as="targetPoint"/><mxPoint x="220" y="680" as="sourcePoint"/></mxGeometry></mxCell><mxCell id="tnv3i2VillkjBU5h0HPm-40" value="" style="shape=line;html=1;strokeWidth=6;strokeColor=#ff0000;fontSize=11;" parent="1" vertex="1"><mxGeometry x="120" y="740" width="200" height="10" as="geometry"/></mxCell><mxCell id="tnv3i2VillkjBU5h0HPm-45" value="" style="edgeStyle=orthogonalEdgeStyle;html=1;verticalAlign=bottom;endArrow=open;endSize=8;strokeColor=#ff0000;rounded=0;fontSize=11;" parent="1" edge="1"><mxGeometry relative="1" as="geometry"><mxPoint x="148" y="809" as="targetPoint"/><mxPoint x="148" y="749" as="sourcePoint"/></mxGeometry></mxCell><mxCell id="tnv3i2VillkjBU5h0HPm-46" value="" style="edgeStyle=orthogonalEdgeStyle;html=1;verticalAlign=bottom;endArrow=open;endSize=8;strokeColor=#ff0000;rounded=0;fontSize=11;" parent="1" edge="1"><mxGeometry relative="1" as="geometry"><mxPoint x="297" y="809" as="targetPoint"/><mxPoint x="297" y="749" as="sourcePoint"/></mxGeometry></mxCell><mxCell id="tnv3i2VillkjBU5h0HPm-47" value="UNMOVABLE" style="rounded=1;whiteSpace=wrap;html=1;arcSize=40;fontColor=#000000;fillColor=#ffffc0;strokeColor=#ff0000;fontSize=11;" parent="1" vertex="1"><mxGeometry x="235" y="810" width="120" height="40" as="geometry"/></mxCell><mxCell id="tnv3i2VillkjBU5h0HPm-49" value="MOVABLE" style="rounded=1;whiteSpace=wrap;html=1;arcSize=40;fontColor=#000000;fillColor=#ffffc0;strokeColor=#ff0000;fontSize=11;" parent="1" vertex="1"><mxGeometry x="85" y="810" width="120" height="40" as="geometry"/></mxCell><mxCell id="tnv3i2VillkjBU5h0HPm-54" value="1" style="endArrow=open;html=1;endSize=12;startArrow=diamondThin;startSize=14;startFill=1;edgeStyle=orthogonalEdgeStyle;align=left;verticalAlign=bottom;rounded=0;fontSize=11;exitX=0.495;exitY=1.001;exitDx=0;exitDy=0;exitPerimeter=0;entryX=0.488;entryY=-0.006;entryDx=0;entryDy=0;entryPerimeter=0;" parent="1" source="tnv3i2VillkjBU5h0HPm-4" edge="1"><mxGeometry x="-1" y="3" relative="1" as="geometry"><mxPoint x="250" y="260" as="sourcePoint"/><mxPoint x="367.328" y="279.64" as="targetPoint"/></mxGeometry></mxCell><mxCell id="tnv3i2VillkjBU5h0HPm-55" value="Pixels" style="text;html=1;align=center;verticalAlign=middle;resizable=0;points=[];autosize=1;strokeColor=none;fillColor=none;fontSize=11;" parent="1" vertex="1"><mxGeometry x="364" y="230" width="50" height="20" as="geometry"/></mxCell><mxCell id="tnv3i2VillkjBU5h0HPm-67" value="" style="shape=line;html=1;strokeWidth=6;strokeColor=#ff0000;fontSize=11;" parent="1" vertex="1"><mxGeometry x="119" y="910" width="200" height="10" as="geometry"/></mxCell><mxCell id="tnv3i2VillkjBU5h0HPm-71" value="&lt;font style=&quot;font-size: 6px&quot;&gt;+ moveTile(row, column, PixelDirection) void&lt;/font&gt;" style="text;html=1;align=center;verticalAlign=middle;resizable=0;points=[];autosize=1;strokeColor=none;fillColor=none;fontSize=11;" parent="1" vertex="1"><mxGeometry x="80" y="860" width="130" height="20" as="geometry"/></mxCell><mxCell id="tnv3i2VillkjBU5h0HPm-79" value="" style="ellipse;html=1;shape=startState;fillColor=#000000;strokeColor=#ff0000;fontSize=6;" parent="1" vertex="1"><mxGeometry x="545" y="650" width="30" height="30" as="geometry"/></mxCell><mxCell id="tnv3i2VillkjBU5h0HPm-80" value="" style="edgeStyle=orthogonalEdgeStyle;html=1;verticalAlign=bottom;endArrow=open;endSize=8;strokeColor=#ff0000;rounded=0;fontSize=6;" parent="1" source="tnv3i2VillkjBU5h0HPm-79" edge="1"><mxGeometry relative="1" as="geometry"><mxPoint x="560" y="740" as="targetPoint"/></mxGeometry></mxCell><mxCell id="tnv3i2VillkjBU5h0HPm-100" style="edgeStyle=orthogonalEdgeStyle;rounded=0;orthogonalLoop=1;jettySize=auto;html=1;exitX=0.75;exitY=0;exitDx=0;exitDy=0;fontSize=12;startArrow=none;startFill=0;endArrow=open;endFill=0;strokeColor=#FF1100;entryX=1;entryY=0.5;entryDx=0;entryDy=0;curved=1;" parent="1" source="tnv3i2VillkjBU5h0HPm-81" target="tnv3i2VillkjBU5h0HPm-81" edge="1"><mxGeometry relative="1" as="geometry"><mxPoint x="625" y="760" as="targetPoint"/><Array as="points"><mxPoint x="590" y="720"/><mxPoint x="635" y="720"/><mxPoint x="635" y="760"/></Array></mxGeometry></mxCell><mxCell id="tnv3i2VillkjBU5h0HPm-81" value="&lt;font style=&quot;font-size: 12px&quot;&gt;PLAYING&lt;/font&gt;" style="rounded=1;whiteSpace=wrap;html=1;arcSize=40;fontColor=#000000;fillColor=#ffffc0;strokeColor=#ff0000;fontSize=6;" parent="1" vertex="1"><mxGeometry x="500" y="740" width="120" height="40" as="geometry"/></mxCell><mxCell id="tnv3i2VillkjBU5h0HPm-82" value="" style="edgeStyle=orthogonalEdgeStyle;html=1;verticalAlign=bottom;endArrow=open;endSize=8;strokeColor=#ff0000;rounded=0;fontSize=6;" parent="1" source="tnv3i2VillkjBU5h0HPm-81" edge="1"><mxGeometry relative="1" as="geometry"><mxPoint x="560" y="840" as="targetPoint"/></mxGeometry></mxCell><mxCell id="tnv3i2VillkjBU5h0HPm-83" value="&lt;font style=&quot;font-size: 12px&quot;&gt;SOLVED&lt;/font&gt;" style="rounded=1;whiteSpace=wrap;html=1;arcSize=40;fontColor=#000000;fillColor=#ffffc0;strokeColor=#ff0000;fontSize=6;" parent="1" vertex="1"><mxGeometry x="500" y="840" width="120" height="40" as="geometry"/></mxCell><mxCell id="tnv3i2VillkjBU5h0HPm-84" value="" style="edgeStyle=orthogonalEdgeStyle;html=1;verticalAlign=bottom;endArrow=open;endSize=8;strokeColor=#ff0000;rounded=0;fontSize=6;" parent="1" source="tnv3i2VillkjBU5h0HPm-83" edge="1"><mxGeometry relative="1" as="geometry"><mxPoint x="560" y="940" as="targetPoint"/></mxGeometry></mxCell><mxCell id="tnv3i2VillkjBU5h0HPm-85" value="" style="ellipse;html=1;shape=endState;fillColor=#000000;strokeColor=#ff0000;fontSize=6;" parent="1" vertex="1"><mxGeometry x="545" y="940" width="30" height="30" as="geometry"/></mxCell><mxCell id="tnv3i2VillkjBU5h0HPm-101" value="&lt;font style=&quot;font-size: 6px&quot;&gt;moveTile : [not (isSolved)]&lt;/font&gt;" style="text;html=1;align=center;verticalAlign=middle;resizable=0;points=[];autosize=1;strokeColor=none;fillColor=none;fontSize=12;" parent="1" vertex="1"><mxGeometry x="595" y="700" width="80" height="20" as="geometry"/></mxCell><mxCell id="tnv3i2VillkjBU5h0HPm-102" value="&lt;span style=&quot;color: rgb(0 , 0 , 0) ; font-family: &amp;#34;helvetica&amp;#34; ; font-size: 6px ; font-style: normal ; font-weight: 400 ; letter-spacing: normal ; text-align: center ; text-indent: 0px ; text-transform: none ; word-spacing: 0px ; background-color: rgb(248 , 249 , 250) ; display: inline ; float: none&quot;&gt;moveTile : [isSolved]&lt;/span&gt;" style="text;whiteSpace=wrap;html=1;fontSize=6;" parent="1" vertex="1"><mxGeometry x="530" y="800" width="90" height="20" as="geometry"/></mxCell><mxCell id="2" value="Empty" style="swimlane;fontStyle=1;align=center;verticalAlign=top;childLayout=stackLayout;horizontal=1;startSize=26;horizontalStack=0;resizeParent=1;resizeParentMax=0;resizeLast=0;collapsible=1;marginBottom=0;" vertex="1" parent="1"><mxGeometry x="180" y="470" width="160" height="86" as="geometry"/></mxCell><mxCell id="3" value=" " style="text;strokeColor=none;fillColor=none;align=left;verticalAlign=top;spacingLeft=4;spacingRight=4;overflow=hidden;rotatable=0;points=[[0,0.5],[1,0.5]];portConstraint=eastwest;" vertex="1" parent="2"><mxGeometry y="26" width="160" height="26" as="geometry"/></mxCell><mxCell id="4" value="" style="line;strokeWidth=1;fillColor=none;align=left;verticalAlign=middle;spacingTop=-1;spacingLeft=3;spacingRight=3;rotatable=0;labelPosition=right;points=[];portConstraint=eastwest;" vertex="1" parent="2"><mxGeometry y="52" width="160" height="8" as="geometry"/></mxCell><mxCell id="5" value=" " style="text;strokeColor=none;fillColor=none;align=left;verticalAlign=top;spacingLeft=4;spacingRight=4;overflow=hidden;rotatable=0;points=[[0,0.5],[1,0.5]];portConstraint=eastwest;" vertex="1" parent="2"><mxGeometry y="60" width="160" height="26" as="geometry"/></mxCell><mxCell id="6" value="Nonepmty" style="swimlane;fontStyle=1;align=center;verticalAlign=top;childLayout=stackLayout;horizontal=1;startSize=26;horizontalStack=0;resizeParent=1;resizeParentMax=0;resizeLast=0;collapsible=1;marginBottom=0;" vertex="1" parent="1"><mxGeometry x="400" y="470" width="190" height="86" as="geometry"/></mxCell><mxCell id="7" value=" " style="text;strokeColor=none;fillColor=none;align=left;verticalAlign=top;spacingLeft=4;spacingRight=4;overflow=hidden;rotatable=0;points=[[0,0.5],[1,0.5]];portConstraint=eastwest;" vertex="1" parent="6"><mxGeometry y="26" width="190" height="26" as="geometry"/></mxCell><mxCell id="8" value="" style="line;strokeWidth=1;fillColor=none;align=left;verticalAlign=middle;spacingTop=-1;spacingLeft=3;spacingRight=3;rotatable=0;labelPosition=right;points=[];portConstraint=eastwest;" vertex="1" parent="6"><mxGeometry y="52" width="190" height="8" as="geometry"/></mxCell><mxCell id="9" value=" " style="text;strokeColor=none;fillColor=none;align=left;verticalAlign=top;spacingLeft=4;spacingRight=4;overflow=hidden;rotatable=0;points=[[0,0.5],[1,0.5]];portConstraint=eastwest;" vertex="1" parent="6"><mxGeometry y="60" width="190" height="26" as="geometry"/></mxCell><mxCell id="10" value="Extends" style="endArrow=block;endSize=16;endFill=0;html=1;rounded=0;exitX=0.5;exitY=0;exitDx=0;exitDy=0;entryX=0.206;entryY=1.087;entryDx=0;entryDy=0;entryPerimeter=0;" edge="1" parent="1" source="2" target="40"><mxGeometry width="160" relative="1" as="geometry"><mxPoint x="240" y="350" as="sourcePoint"/><mxPoint x="337.82500000000005" y="342.58000000000004" as="targetPoint"/></mxGeometry></mxCell><mxCell id="11" value="Extends" style="endArrow=block;endSize=16;endFill=0;html=1;rounded=0;exitX=0.5;exitY=0;exitDx=0;exitDy=0;entryX=0.748;entryY=1.087;entryDx=0;entryDy=0;entryPerimeter=0;" edge="1" parent="1" source="6" target="40"><mxGeometry width="160" relative="1" as="geometry"><mxPoint x="270" y="360" as="sourcePoint"/><mxPoint x="401.8990000000001" y="343.15" as="targetPoint"/></mxGeometry></mxCell><mxCell id="19" value="" style="edgeStyle=orthogonalEdgeStyle;html=1;verticalAlign=bottom;endArrow=open;endSize=8;strokeColor=#ff0000;rounded=0;fontSize=11;exitX=1;exitY=0.5;exitDx=0;exitDy=0;entryX=0;entryY=0.5;entryDx=0;entryDy=0;startArrow=open;startFill=0;targetPerimeterSpacing=8;sourcePerimeterSpacing=6;" edge="1" parent="1" source="tnv3i2VillkjBU5h0HPm-49" target="tnv3i2VillkjBU5h0HPm-47"><mxGeometry relative="1" as="geometry"><mxPoint x="204.43" y="930" as="targetPoint"/><mxPoint x="204.43" y="870" as="sourcePoint"/></mxGeometry></mxCell><mxCell id="20" value="" style="edgeStyle=orthogonalEdgeStyle;html=1;verticalAlign=bottom;endArrow=open;endSize=8;strokeColor=#ff0000;rounded=0;fontSize=11;" edge="1" parent="1"><mxGeometry relative="1" as="geometry"><mxPoint x="145" y="910" as="targetPoint"/><mxPoint x="145" y="850" as="sourcePoint"/></mxGeometry></mxCell><mxCell id="21" value="" style="edgeStyle=orthogonalEdgeStyle;html=1;verticalAlign=bottom;endArrow=open;endSize=8;strokeColor=#ff0000;rounded=0;fontSize=11;" edge="1" parent="1"><mxGeometry relative="1" as="geometry"><mxPoint x="294.71" y="910" as="targetPoint"/><mxPoint x="294.71" y="850" as="sourcePoint"/></mxGeometry></mxCell><mxCell id="tnv3i2VillkjBU5h0HPm-70" value="" style="ellipse;html=1;shape=endState;fillColor=#000000;strokeColor=#ff0000;fontSize=11;" parent="1" vertex="1"><mxGeometry x="204" y="990" width="30" height="30" as="geometry"/></mxCell><mxCell id="24" value="" style="edgeStyle=orthogonalEdgeStyle;html=1;verticalAlign=bottom;endArrow=open;endSize=8;strokeColor=#ff0000;rounded=0;fontSize=11;entryX=0.5;entryY=0;entryDx=0;entryDy=0;" edge="1" parent="1" target="tnv3i2VillkjBU5h0HPm-70"><mxGeometry relative="1" as="geometry"><mxPoint x="219.70999999999998" y="980" as="targetPoint"/><mxPoint x="219.70999999999998" y="920" as="sourcePoint"/></mxGeometry></mxCell><mxCell id="25" value="&lt;font style=&quot;font-size: 6px&quot;&gt;+ moveTile(row, column, PixelDirection) void&lt;/font&gt;" style="text;html=1;align=center;verticalAlign=middle;resizable=0;points=[];autosize=1;strokeColor=none;fillColor=none;fontSize=11;" vertex="1" parent="1"><mxGeometry x="230" y="860" width="130" height="20" as="geometry"/></mxCell><mxCell id="27" value="&lt;font style=&quot;font-size: 6px&quot;&gt;+ moveTile(row, column, PixelDirection) void&lt;/font&gt;" style="text;html=1;align=center;verticalAlign=middle;resizable=0;points=[];autosize=1;strokeColor=none;fillColor=none;fontSize=11;rotation=-75;" vertex="1" parent="1"><mxGeometry x="155" y="810" width="130" height="20" as="geometry"/></mxCell><mxCell id="37" value="Pixel" style="swimlane;fontStyle=1;align=center;verticalAlign=top;childLayout=stackLayout;horizontal=1;startSize=26;horizontalStack=0;resizeParent=1;resizeParentMax=0;resizeLast=0;collapsible=1;marginBottom=0;strokeWidth=1;" vertex="1" parent="1"><mxGeometry x="280" y="280" width="169.5" height="84" as="geometry"/></mxCell><mxCell id="39" value="" style="line;strokeWidth=1;fillColor=none;align=left;verticalAlign=middle;spacingTop=-1;spacingLeft=3;spacingRight=3;rotatable=0;labelPosition=right;points=[];portConstraint=eastwest;" vertex="1" parent="37"><mxGeometry y="26" width="169.5" height="8" as="geometry"/></mxCell><mxCell id="40" value="+ getState(): PixelState&#10;- setState(state: PixelState)&#10;+ isEmpty(row, column): bolean" style="text;strokeColor=none;fillColor=none;align=left;verticalAlign=top;spacingLeft=4;spacingRight=4;overflow=hidden;rotatable=0;points=[[0,0.5],[1,0.5]];portConstraint=eastwest;" vertex="1" parent="37"><mxGeometry y="34" width="169.5" height="50" as="geometry"/></mxCell></root></mxGraphModel></diagram></mxfile>